<svg width="355" height="82" viewBox="0 0 355 82" fill="none" xmlns="http://www.w3.org/2000/svg">
<ellipse cx="31.5969" cy="13.8975" rx="13.7223" ry="13.8975" fill="url(#paint0_linear_105_22344)"/>
<ellipse cx="55.2777" cy="54.7256" rx="13.7223" ry="13.8975" fill="url(#paint1_linear_105_22344)"/>
<ellipse cx="13.7223" cy="54.2092" rx="13.7223" ry="13.7405" fill="url(#paint2_linear_105_22344)"/>
<path d="M51.9844 40.9879C51.1689 40.1713 52.8469 40.0195 53.7879 40.0457L55.4345 41.7728L53.0037 42.0083C53.0037 42.0083 52.7999 41.8045 51.9844 40.9879Z" fill="url(#paint3_linear_105_22344)"/>
<path d="M62.4917 43.4207C61.2371 42.4785 62.4917 43.4207 63.1974 42.8711L63.7463 44.3629L62.4917 43.4207Z" fill="url(#paint4_linear_105_22344)"/>
<path d="M44.2999 20.4121L43.3589 20.0195L42.9669 20.4121L43.2021 21.2758L44.2999 20.4121Z" fill="url(#paint5_linear_105_22344)"/>
<path d="M48.4558 39.2584L43.9862 46.796L44.5351 46.2464L46.025 44.6761L47.6716 43.3413L49.5536 42.242L50.6513 41.7709L51.9059 41.3784L53.631 41.0643L55.4345 40.9858L57.0028 41.0643L58.5711 41.2998L60.453 42.0065L62.1781 42.8702L63.2759 43.5768L64.2952 44.4405L66.4908 46.796L62.0997 39.4939L56.9244 30.3075L51.5139 20.8854L45.3977 10.3641L43.0453 6.28125L43.9078 8.08714L44.6135 9.89303L45.0056 11.4634L45.1624 13.0337V14.8396L44.9272 16.4885L44.4567 18.0588L43.9078 19.5506L43.3589 20.6499L42.6532 21.7491L41.5554 23.0839L40.3008 24.3402L39.5167 25.0468L38.6541 25.5964L37.7916 26.1461L36.7722 26.5386L35.6744 26.9312L34.3414 27.3238L33.0868 27.5594L31.6754 27.7164L44.143 27.6379L45.2408 27.8734L46.025 28.266L46.8091 28.6586L47.7501 29.3653L48.4558 29.9149L49.0831 30.7786L49.632 31.8778L49.9456 32.977L50.1024 34.5474V36.0392C50.0883 36.3609 49.3847 37.8344 49.3967 37.6881L48.4558 39.2584Z" fill="url(#paint6_linear_105_22344)"/>
<path d="M45.8681 13.1918L44.8487 10.7578L43.6725 12.3282L43.2021 14.7622L43.3589 18.1384L45.0056 18.9236L46.2602 15.7829L45.8681 13.1918Z" fill="url(#paint7_linear_105_22344)"/>
<path d="M40.3792 26.6968L41.3201 23.085L39.1246 24.0272L37.7915 24.9694L35.596 26.6968L37.9484 26.8538C39.8303 26.9794 40.353 26.8015 40.3792 26.6968Z" fill="url(#paint8_linear_105_22344)"/>
<path d="M60.3745 41.5365L58.4926 39.8876L56.0618 40.6728C56.0357 40.8822 56.4696 41.5679 58.4142 42.6357C60.3588 43.7036 60.5314 42.3478 60.3745 41.5365Z" fill="url(#paint9_linear_105_22344)"/>
<path d="M53.8662 41.8506L52.3764 40.6728L49.1615 42.0076L50.4161 42.6357L53.8662 41.8506Z" fill="url(#paint10_linear_105_22344)"/>
<path d="M86.4844 66H76.3242V30.4922H85.9219V37.1016C87.3984 32.1797 89.9531 29.7188 93.5859 29.7188C94.1016 29.7188 94.7344 29.7539 95.4844 29.8242V40.1602C93.3516 40.1602 91.6875 40.4883 90.4922 41.1445C89.3203 41.8008 88.3594 42.9844 87.6094 44.6953C86.8594 46.3828 86.4844 48.668 86.4844 51.5508V66ZM125.893 42.5156L137.46 66H125.893L118.475 49.8984L112.323 56.9297V66H102.444V18.0117H112.323V46.7695L113.87 44.8359C114.526 43.9453 115.077 43.2305 115.522 42.6914L125.893 30.4922H136.088L125.893 42.5156ZM182.177 35.8711L170.4 36.6094C170.235 29.8359 167.599 26.4492 162.489 26.4492C156.63 26.4492 153.7 31.6641 153.7 42.0938C153.7 48.1172 154.497 52.207 156.091 54.3633C157.685 56.4961 159.911 57.5625 162.771 57.5625C167.411 57.5625 170.247 54.5391 171.278 48.4922L182.177 49.1602C181.474 54.9023 179.329 59.2734 175.743 62.2734C172.181 65.25 167.81 66.7383 162.63 66.7383C156.278 66.7383 151.11 64.5469 147.126 60.1641C143.165 55.7812 141.185 49.7227 141.185 41.9883C141.185 34.7461 143.107 28.8164 146.95 24.1992C150.794 19.582 156.044 17.2734 162.7 17.2734C174.232 17.2734 180.724 23.4727 182.177 35.8711ZM220.636 66H210.476C210.148 64.5938 209.984 62.7422 209.984 60.4453C208.203 62.9766 206.422 64.6641 204.64 65.5078C202.882 66.3281 200.879 66.7383 198.629 66.7383C195.3 66.7383 192.605 65.8359 190.543 64.0312C188.504 62.2266 187.484 59.8008 187.484 56.7539C187.484 54.5273 188.082 52.4766 189.277 50.6016C190.472 48.7266 192.394 47.2617 195.043 46.207C197.691 45.1289 202.519 44.332 209.527 43.8164V41.7773C209.527 38.332 207.804 36.6094 204.359 36.6094C200.679 36.6094 198.629 38.332 198.207 41.7773L188.539 40.8633C189.172 36.832 191.082 33.9727 194.269 32.2852C197.457 30.5977 201.066 29.7539 205.097 29.7539C207.511 29.7539 209.785 30.0352 211.918 30.5977C214.05 31.1602 215.715 32.0039 216.91 33.1289C218.105 34.2539 218.914 35.4492 219.336 36.7148C219.757 37.957 219.968 40.1367 219.968 43.2539V59.3555C219.968 62.4492 220.191 64.6641 220.636 66ZM209.527 48.9844C202.191 49.7109 198.523 51.9258 198.523 55.6289C198.523 56.8711 198.91 57.9492 199.683 58.8633C200.457 59.7539 201.558 60.1992 202.988 60.1992C204.84 60.1992 206.386 59.4375 207.629 57.9141C208.894 56.3672 209.527 54.4688 209.527 52.2188V48.9844ZM240.569 18.0117V34.957C242.444 31.4883 245.373 29.7539 249.358 29.7539C253.436 29.7539 256.658 31.4062 259.026 34.7109C261.393 37.9922 262.576 42.5039 262.576 48.2461C262.576 53.7773 261.358 58.2422 258.92 61.6406C256.483 65.0391 252.967 66.7383 248.373 66.7383C245.983 66.7383 244.037 66.3281 242.537 65.5078C241.037 64.6875 239.526 63.0352 238.002 60.5508C237.346 61.2305 236.572 63.0469 235.682 66H230.092V18.0117H240.569ZM240.569 51.9375C240.569 54.4219 241.084 56.2969 242.115 57.5625C243.17 58.8281 244.424 59.4609 245.877 59.4609C247.612 59.4609 249.041 58.6992 250.166 57.1758C251.291 55.6289 251.854 52.6406 251.854 48.2109C251.854 43.1719 251.268 40.0078 250.096 38.7188C248.947 37.4297 247.635 36.7852 246.158 36.7852C244.447 36.7852 243.088 37.5117 242.08 38.9648C241.072 40.418 240.569 42.4805 240.569 45.1523V51.9375ZM281.243 30.4922V66H270.766V30.4922H281.243ZM281.243 17.0273V27.5039H270.766V17.0273H281.243ZM322.199 66H311.722V46.0664C311.722 43.6523 311.628 42 311.441 41.1094C311.253 40.2188 310.796 39.4688 310.07 38.8594C309.343 38.2266 308.429 37.9102 307.327 37.9102C303.648 37.9102 301.808 40.6289 301.808 46.0664V66H291.331V30.4922H301.07V36.5039C302.687 33.6445 304.281 31.8047 305.851 30.9844C307.421 30.1641 309.12 29.7539 310.949 29.7539C314.324 29.7539 317.042 30.668 319.105 32.4961C321.167 34.3008 322.199 37.8633 322.199 43.1836V66Z" fill="url(#paint11_linear_105_22344)"/>
<circle cx="342.5" cy="56.5" r="11.5" stroke="url(#paint12_linear_105_22344)" stroke-width="2"/>
<path d="M347.134 62H345.561L343.346 56.8057H339.909V62H338.503V50.0029H343.231C344.515 50.0029 345.464 50.3545 346.079 51.0576C346.7 51.7549 347.011 52.5195 347.011 53.3516C347.011 53.9902 346.838 54.6025 346.492 55.1885C346.146 55.7744 345.575 56.1934 344.778 56.4453L347.134 62ZM339.909 55.584H343.047C343.873 55.584 344.488 55.3672 344.893 54.9336C345.303 54.4941 345.508 53.958 345.508 53.3252C345.508 52.6924 345.291 52.2002 344.857 51.8486C344.43 51.4971 343.888 51.3213 343.231 51.3213H339.909V55.584Z" fill="url(#paint13_linear_105_22344)"/>
<defs>
<linearGradient id="paint0_linear_105_22344" x1="31.5969" y1="0" x2="31.5969" y2="27.795" gradientUnits="userSpaceOnUse">
<stop stop-color="white"/>
<stop offset="1" stop-color="#666666"/>
</linearGradient>
<linearGradient id="paint1_linear_105_22344" x1="55.2777" y1="40.8281" x2="55.2777" y2="68.6231" gradientUnits="userSpaceOnUse">
<stop stop-color="white"/>
<stop offset="1" stop-color="#666666"/>
</linearGradient>
<linearGradient id="paint2_linear_105_22344" x1="13.7223" y1="40.4688" x2="13.7223" y2="67.9497" gradientUnits="userSpaceOnUse">
<stop stop-color="white"/>
<stop offset="1" stop-color="#666666"/>
</linearGradient>
<linearGradient id="paint3_linear_105_22344" x1="53.6009" y1="40.043" x2="53.6009" y2="42.0083" gradientUnits="userSpaceOnUse">
<stop stop-color="white"/>
<stop offset="1" stop-color="#666666"/>
</linearGradient>
<linearGradient id="paint4_linear_105_22344" x1="62.8518" y1="42.8711" x2="62.8518" y2="44.3629" gradientUnits="userSpaceOnUse">
<stop stop-color="white"/>
<stop offset="1" stop-color="#666666"/>
</linearGradient>
<linearGradient id="paint5_linear_105_22344" x1="43.6334" y1="20.0195" x2="43.6334" y2="21.2758" gradientUnits="userSpaceOnUse">
<stop stop-color="white"/>
<stop offset="1" stop-color="#666666"/>
</linearGradient>
<linearGradient id="paint6_linear_105_22344" x1="49.0831" y1="6.28125" x2="49.0831" y2="46.796" gradientUnits="userSpaceOnUse">
<stop stop-color="white"/>
<stop offset="1" stop-color="#666666"/>
</linearGradient>
<linearGradient id="paint7_linear_105_22344" x1="48.0074" y1="10.7578" x2="48.0074" y2="43.0293" gradientUnits="userSpaceOnUse">
<stop stop-color="white"/>
<stop offset="1" stop-color="#666666"/>
</linearGradient>
<linearGradient id="paint8_linear_105_22344" x1="48.0074" y1="10.7578" x2="48.0074" y2="43.0293" gradientUnits="userSpaceOnUse">
<stop stop-color="white"/>
<stop offset="1" stop-color="#666666"/>
</linearGradient>
<linearGradient id="paint9_linear_105_22344" x1="48.0074" y1="10.7578" x2="48.0074" y2="43.0293" gradientUnits="userSpaceOnUse">
<stop stop-color="white"/>
<stop offset="1" stop-color="#666666"/>
</linearGradient>
<linearGradient id="paint10_linear_105_22344" x1="48.0074" y1="10.7578" x2="48.0074" y2="43.0293" gradientUnits="userSpaceOnUse">
<stop stop-color="white"/>
<stop offset="1" stop-color="#666666"/>
</linearGradient>
<linearGradient id="paint11_linear_105_22344" x1="199.652" y1="-4.11993e-08" x2="199.258" y2="81.9996" gradientUnits="userSpaceOnUse">
<stop offset="0.384638" stop-color="white"/>
<stop offset="1" stop-color="#494949"/>
</linearGradient>
<linearGradient id="paint12_linear_105_22344" x1="342.5" y1="44" x2="342.5" y2="69" gradientUnits="userSpaceOnUse">
<stop offset="0.250019" stop-color="white"/>
<stop offset="1" stop-color="#494949"/>
</linearGradient>
<linearGradient id="paint13_linear_105_22344" x1="343" y1="46" x2="343" y2="66" gradientUnits="userSpaceOnUse">
<stop offset="0.360599" stop-color="white"/>
<stop offset="1" stop-color="#494949"/>
</linearGradient>
</defs>
</svg>
