<svg width="361" height="96" viewBox="0 0 361 96" fill="none" xmlns="http://www.w3.org/2000/svg">
<ellipse cx="37.0921" cy="16.7328" rx="16.1088" ry="16.7328" fill="url(#paint0_linear_105_22344)"/>
<ellipse cx="64.8912" cy="65.8891" rx="16.1088" ry="16.7328" fill="url(#paint1_linear_105_22344)"/>
<ellipse cx="16.1088" cy="65.2703" rx="16.1088" ry="16.5438" fill="url(#paint2_linear_105_22344)"/>
<path d="M61.0251 49.3486C60.0678 48.3655 62.0377 48.1827 63.1423 48.2142L65.0753 50.2937L62.2218 50.5773C62.2218 50.5773 61.9824 50.3318 61.0251 49.3486Z" fill="url(#paint3_linear_105_22344)"/>
<path d="M73.3598 52.2789C71.887 51.1445 73.3598 52.2789 74.1883 51.6172L74.8326 53.4134L73.3598 52.2789Z" fill="url(#paint4_linear_105_22344)"/>
<path d="M52.0042 24.5781L50.8996 24.1055L50.4393 24.5781L50.7155 25.618L52.0042 24.5781Z" fill="url(#paint5_linear_105_22344)"/>
<path d="M56.8828 47.2675L51.636 56.343L52.2803 55.6812L54.0293 53.7905L55.9623 52.1834L58.1715 50.8599L59.4602 50.2927L60.933 49.82L62.9581 49.4418L65.0753 49.3473L66.9163 49.4418L68.7573 49.7255L70.9665 50.5763L72.9916 51.6162L74.2803 52.467L75.477 53.5069L78.0544 56.343L72.8996 47.5511L66.8242 36.4904L60.4728 25.1462L53.2929 12.4784L50.5314 7.5625L51.5439 9.73682L52.3724 11.9111L52.8326 13.8019L53.0167 15.6926V17.8669L52.7406 19.8522L52.1883 21.7429L51.5439 23.539L50.8996 24.8625L50.0711 26.186L48.7824 27.7932L47.3096 29.3057L46.3891 30.1565L45.3766 30.8183L44.364 31.4801L43.1673 31.9527L41.8786 32.4254L40.3138 32.8981L38.841 33.1817L37.1841 33.3708L51.8201 33.2762L53.1088 33.5598L54.0293 34.0325L54.9498 34.5052L56.0544 35.356L56.8828 36.0178L57.6192 37.0577L58.2636 38.3812L58.6318 39.7047L58.8159 41.5954V43.3916C58.7993 43.7789 57.9733 45.553 57.9874 45.3768L56.8828 47.2675Z" fill="url(#paint6_linear_105_22344)"/>
<path d="M53.8452 15.8837L52.6485 12.9531L51.2678 14.8438L50.7155 17.7744L50.8996 21.8395L52.8326 22.7848L54.3054 19.0034L53.8452 15.8837Z" fill="url(#paint7_linear_105_22344)"/>
<path d="M47.4016 32.1439L48.5062 27.7952L45.9288 28.9297L44.364 30.0641L41.7866 32.1439L44.5481 32.333C46.7573 32.4842 47.371 32.2699 47.4016 32.1439Z" fill="url(#paint8_linear_105_22344)"/>
<path d="M70.8744 50.0112L68.6652 48.0259L65.8117 48.9713C65.781 49.2234 66.2903 50.049 68.5732 51.3347C70.856 52.6203 71.0585 50.988 70.8744 50.0112Z" fill="url(#paint9_linear_105_22344)"/>
<path d="M63.2343 50.3893L61.4853 48.9713L57.7113 50.5784L59.1841 51.3347L63.2343 50.3893Z" fill="url(#paint10_linear_105_22344)"/>
<path d="M97.4844 80H87.3242V44.4922H96.9219V51.1016C98.3984 46.1797 100.953 43.7188 104.586 43.7188C105.102 43.7188 105.734 43.7539 106.484 43.8242V54.1602C104.352 54.1602 102.688 54.4883 101.492 55.1445C100.32 55.8008 99.3594 56.9844 98.6094 58.6953C97.8594 60.3828 97.4844 62.668 97.4844 65.5508V80ZM135.453 56.5156L147.02 80H135.453L128.035 63.8984L121.883 70.9297V80H112.004V32.0117H121.883V60.7695L123.43 58.8359C124.086 57.9453 124.637 57.2305 125.082 56.6914L135.453 44.4922H145.648L135.453 56.5156ZM190.297 49.8711L178.52 50.6094C178.355 43.8359 175.719 40.4492 170.609 40.4492C164.75 40.4492 161.82 45.6641 161.82 56.0938C161.82 62.1172 162.617 66.207 164.211 68.3633C165.805 70.4961 168.031 71.5625 170.891 71.5625C175.531 71.5625 178.367 68.5391 179.398 62.4922L190.297 63.1602C189.594 68.9023 187.449 73.2734 183.863 76.2734C180.301 79.25 175.93 80.7383 170.75 80.7383C164.398 80.7383 159.23 78.5469 155.246 74.1641C151.285 69.7812 149.305 63.7227 149.305 55.9883C149.305 48.7461 151.227 42.8164 155.07 38.1992C158.914 33.582 164.164 31.2734 170.82 31.2734C182.352 31.2734 188.844 37.4727 190.297 49.8711ZM227.316 80H217.156C216.828 78.5938 216.664 76.7422 216.664 74.4453C214.883 76.9766 213.102 78.6641 211.32 79.5078C209.562 80.3281 207.559 80.7383 205.309 80.7383C201.98 80.7383 199.285 79.8359 197.223 78.0312C195.184 76.2266 194.164 73.8008 194.164 70.7539C194.164 68.5273 194.762 66.4766 195.957 64.6016C197.152 62.7266 199.074 61.2617 201.723 60.207C204.371 59.1289 209.199 58.332 216.207 57.8164V55.7773C216.207 52.332 214.484 50.6094 211.039 50.6094C207.359 50.6094 205.309 52.332 204.887 55.7773L195.219 54.8633C195.852 50.832 197.762 47.9727 200.949 46.2852C204.137 44.5977 207.746 43.7539 211.777 43.7539C214.191 43.7539 216.465 44.0352 218.598 44.5977C220.73 45.1602 222.395 46.0039 223.59 47.1289C224.785 48.2539 225.594 49.4492 226.016 50.7148C226.438 51.957 226.648 54.1367 226.648 57.2539V73.3555C226.648 76.4492 226.871 78.6641 227.316 80ZM216.207 62.9844C208.871 63.7109 205.203 65.9258 205.203 69.6289C205.203 70.8711 205.59 71.9492 206.363 72.8633C207.137 73.7539 208.238 74.1992 209.668 74.1992C211.52 74.1992 213.066 73.4375 214.309 71.9141C215.574 70.3672 216.207 68.4688 216.207 66.2188V62.9844ZM245.809 32.0117V48.957C247.684 45.4883 250.613 43.7539 254.598 43.7539C258.676 43.7539 261.898 45.4062 264.266 48.7109C266.633 51.9922 267.816 56.5039 267.816 62.2461C267.816 67.7773 266.598 72.2422 264.16 75.6406C261.723 79.0391 258.207 80.7383 253.613 80.7383C251.223 80.7383 249.277 80.3281 247.777 79.5078C246.277 78.6875 244.766 77.0352 243.242 74.5508C242.586 75.2305 241.812 77.0469 240.922 80H235.332V32.0117H245.809ZM245.809 65.9375C245.809 68.4219 246.324 70.2969 247.355 71.5625C248.41 72.8281 249.664 73.4609 251.117 73.4609C252.852 73.4609 254.281 72.6992 255.406 71.1758C256.531 69.6289 257.094 66.6406 257.094 62.2109C257.094 57.1719 256.508 54.0078 255.336 52.7188C254.188 51.4297 252.875 50.7852 251.398 50.7852C249.688 50.7852 248.328 51.5117 247.32 52.9648C246.312 54.418 245.809 56.4805 245.809 59.1523V65.9375ZM285.043 44.4922V80H274.566V44.4922H285.043ZM285.043 31.0273V41.5039H274.566V31.0273H285.043ZM324.559 80H314.082V60.0664C314.082 57.6523 313.988 56 313.801 55.1094C313.613 54.2188 313.156 53.4688 312.43 52.8594C311.703 52.2266 310.789 51.9102 309.688 51.9102C306.008 51.9102 304.168 54.6289 304.168 60.0664V80H293.691V44.4922H303.43V50.5039C305.047 47.6445 306.641 45.8047 308.211 44.9844C309.781 44.1641 311.48 43.7539 313.309 43.7539C316.684 43.7539 319.402 44.668 321.465 46.4961C323.527 48.3008 324.559 51.8633 324.559 57.1836V80Z" fill="url(#paint11_linear_105_22344)"/>
<circle cx="348.5" cy="70.5" r="11.5" stroke="url(#paint12_linear_105_22344)" stroke-width="2"/>
<path d="M353.134 76H351.561L349.346 70.8057H345.909V76H344.503V64.0029H349.231C350.515 64.0029 351.464 64.3545 352.079 65.0576C352.7 65.7549 353.011 66.5195 353.011 67.3516C353.011 67.9902 352.838 68.6025 352.492 69.1885C352.146 69.7744 351.575 70.1934 350.778 70.4453L353.134 76ZM345.909 69.584H349.047C349.873 69.584 350.488 69.3672 350.893 68.9336C351.303 68.4941 351.508 67.958 351.508 67.3252C351.508 66.6924 351.291 66.2002 350.857 65.8486C350.43 65.4971 349.888 65.3213 349.231 65.3213H345.909V69.584Z" fill="url(#paint13_linear_105_22344)"/>
<defs>
<linearGradient id="paint0_linear_105_22344" x1="37.0921" y1="0" x2="37.0921" y2="33.4657" gradientUnits="userSpaceOnUse">
<stop stop-color="white"/>
<stop offset="1" stop-color="#666666"/>
</linearGradient>
<linearGradient id="paint1_linear_105_22344" x1="64.8912" y1="49.1562" x2="64.8912" y2="82.6219" gradientUnits="userSpaceOnUse">
<stop stop-color="white"/>
<stop offset="1" stop-color="#666666"/>
</linearGradient>
<linearGradient id="paint2_linear_105_22344" x1="16.1088" y1="48.7266" x2="16.1088" y2="81.8141" gradientUnits="userSpaceOnUse">
<stop stop-color="white"/>
<stop offset="1" stop-color="#666666"/>
</linearGradient>
<linearGradient id="paint3_linear_105_22344" x1="62.9228" y1="48.2109" x2="62.9228" y2="50.5773" gradientUnits="userSpaceOnUse">
<stop stop-color="white"/>
<stop offset="1" stop-color="#666666"/>
</linearGradient>
<linearGradient id="paint4_linear_105_22344" x1="73.7825" y1="51.6172" x2="73.7825" y2="53.4134" gradientUnits="userSpaceOnUse">
<stop stop-color="white"/>
<stop offset="1" stop-color="#666666"/>
</linearGradient>
<linearGradient id="paint5_linear_105_22344" x1="51.2218" y1="24.1055" x2="51.2218" y2="25.618" gradientUnits="userSpaceOnUse">
<stop stop-color="white"/>
<stop offset="1" stop-color="#666666"/>
</linearGradient>
<linearGradient id="paint6_linear_105_22344" x1="57.6192" y1="7.5625" x2="57.6192" y2="56.343" gradientUnits="userSpaceOnUse">
<stop stop-color="white"/>
<stop offset="1" stop-color="#666666"/>
</linearGradient>
<linearGradient id="paint7_linear_105_22344" x1="56.3565" y1="12.9531" x2="56.3565" y2="51.8086" gradientUnits="userSpaceOnUse">
<stop stop-color="white"/>
<stop offset="1" stop-color="#666666"/>
</linearGradient>
<linearGradient id="paint8_linear_105_22344" x1="56.3565" y1="12.9531" x2="56.3565" y2="51.8086" gradientUnits="userSpaceOnUse">
<stop stop-color="white"/>
<stop offset="1" stop-color="#666666"/>
</linearGradient>
<linearGradient id="paint9_linear_105_22344" x1="56.3565" y1="12.9531" x2="56.3565" y2="51.8086" gradientUnits="userSpaceOnUse">
<stop stop-color="white"/>
<stop offset="1" stop-color="#666666"/>
</linearGradient>
<linearGradient id="paint10_linear_105_22344" x1="56.3565" y1="12.9531" x2="56.3565" y2="51.8086" gradientUnits="userSpaceOnUse">
<stop stop-color="white"/>
<stop offset="1" stop-color="#666666"/>
</linearGradient>
<linearGradient id="paint11_linear_105_22344" x1="206.147" y1="14" x2="205.739" y2="95.9994" gradientUnits="userSpaceOnUse">
<stop offset="0.384638" stop-color="white"/>
<stop offset="1" stop-color="#494949"/>
</linearGradient>
<linearGradient id="paint12_linear_105_22344" x1="348.5" y1="58" x2="348.5" y2="83" gradientUnits="userSpaceOnUse">
<stop offset="0.250019" stop-color="white"/>
<stop offset="1" stop-color="#494949"/>
</linearGradient>
<linearGradient id="paint13_linear_105_22344" x1="349" y1="60" x2="349" y2="80" gradientUnits="userSpaceOnUse">
<stop offset="0.360599" stop-color="white"/>
<stop offset="1" stop-color="#494949"/>
</linearGradient>
</defs>
</svg>
