<svg width="318" height="82" viewBox="0 0 318 82" fill="none" xmlns="http://www.w3.org/2000/svg">
<path d="M28.4062 18.0117L43.418 66H31.3242L28.4062 56.1211H12.8672L9.84375 66H0L15.3633 18.0117H28.4062ZM15.5742 47.2617H25.7695L20.6719 30.4219L15.5742 47.2617ZM58.2891 66H48.1289V30.4922H57.7266V37.1016C59.2031 32.1797 61.7578 29.7188 65.3906 29.7188C65.9062 29.7188 66.5391 29.7539 67.2891 29.8242V40.1602C65.1562 40.1602 63.4922 40.4883 62.2969 41.1445C61.125 41.8008 60.1641 42.9844 59.4141 44.6953C58.6641 46.3828 58.2891 48.668 58.2891 51.5508V66ZM96.2578 42.5156L107.824 66H96.2578L88.8398 49.8984L82.6875 56.9297V66H72.8086V18.0117H82.6875V46.7695L84.2344 44.8359C84.8906 43.9453 85.4414 43.2305 85.8867 42.6914L96.2578 30.4922H106.453L96.2578 42.5156ZM151.102 35.8711L139.324 36.6094C139.16 29.8359 136.523 26.4492 131.414 26.4492C125.555 26.4492 122.625 31.6641 122.625 42.0938C122.625 48.1172 123.422 52.207 125.016 54.3633C126.609 56.4961 128.836 57.5625 131.695 57.5625C136.336 57.5625 139.172 54.5391 140.203 48.4922L151.102 49.1602C150.398 54.9023 148.254 59.2734 144.668 62.2734C141.105 65.25 136.734 66.7383 131.555 66.7383C125.203 66.7383 120.035 64.5469 116.051 60.1641C112.09 55.7812 110.109 49.7227 110.109 41.9883C110.109 34.7461 112.031 28.8164 115.875 24.1992C119.719 19.582 124.969 17.2734 131.625 17.2734C143.156 17.2734 149.648 23.4727 151.102 35.8711ZM188.121 66H177.961C177.633 64.5938 177.469 62.7422 177.469 60.4453C175.688 62.9766 173.906 64.6641 172.125 65.5078C170.367 66.3281 168.363 66.7383 166.113 66.7383C162.785 66.7383 160.09 65.8359 158.027 64.0312C155.988 62.2266 154.969 59.8008 154.969 56.7539C154.969 54.5273 155.566 52.4766 156.762 50.6016C157.957 48.7266 159.879 47.2617 162.527 46.207C165.176 45.1289 170.004 44.332 177.012 43.8164V41.7773C177.012 38.332 175.289 36.6094 171.844 36.6094C168.164 36.6094 166.113 38.332 165.691 41.7773L156.023 40.8633C156.656 36.832 158.566 33.9727 161.754 32.2852C164.941 30.5977 168.551 29.7539 172.582 29.7539C174.996 29.7539 177.27 30.0352 179.402 30.5977C181.535 31.1602 183.199 32.0039 184.395 33.1289C185.59 34.2539 186.398 35.4492 186.82 36.7148C187.242 37.957 187.453 40.1367 187.453 43.2539V59.3555C187.453 62.4492 187.676 64.6641 188.121 66ZM177.012 48.9844C169.676 49.7109 166.008 51.9258 166.008 55.6289C166.008 56.8711 166.395 57.9492 167.168 58.8633C167.941 59.7539 169.043 60.1992 170.473 60.1992C172.324 60.1992 173.871 59.4375 175.113 57.9141C176.379 56.3672 177.012 54.4688 177.012 52.2188V48.9844ZM206.613 18.0117V34.957C208.488 31.4883 211.418 29.7539 215.402 29.7539C219.48 29.7539 222.703 31.4062 225.07 34.7109C227.438 37.9922 228.621 42.5039 228.621 48.2461C228.621 53.7773 227.402 58.2422 224.965 61.6406C222.527 65.0391 219.012 66.7383 214.418 66.7383C212.027 66.7383 210.082 66.3281 208.582 65.5078C207.082 64.6875 205.57 63.0352 204.047 60.5508C203.391 61.2305 202.617 63.0469 201.727 66H196.137V18.0117H206.613ZM206.613 51.9375C206.613 54.4219 207.129 56.2969 208.16 57.5625C209.215 58.8281 210.469 59.4609 211.922 59.4609C213.656 59.4609 215.086 58.6992 216.211 57.1758C217.336 55.6289 217.898 52.6406 217.898 48.2109C217.898 43.1719 217.312 40.0078 216.141 38.7188C214.992 37.4297 213.68 36.7852 212.203 36.7852C210.492 36.7852 209.133 37.5117 208.125 38.9648C207.117 40.418 206.613 42.4805 206.613 45.1523V51.9375ZM245.848 30.4922V66H235.371V30.4922H245.848ZM245.848 17.0273V27.5039H235.371V17.0273H245.848ZM285.363 66H274.887V46.0664C274.887 43.6523 274.793 42 274.605 41.1094C274.418 40.2188 273.961 39.4688 273.234 38.8594C272.508 38.2266 271.594 37.9102 270.492 37.9102C266.812 37.9102 264.973 40.6289 264.973 46.0664V66H254.496V30.4922H264.234V36.5039C265.852 33.6445 267.445 31.8047 269.016 30.9844C270.586 30.1641 272.285 29.7539 274.113 29.7539C277.488 29.7539 280.207 30.668 282.27 32.4961C284.332 34.3008 285.363 37.8633 285.363 43.1836V66Z" fill="url(#paint0_linear_105_22344)"/>
<circle cx="305.5" cy="56.5" r="11.5" stroke="url(#paint1_linear_105_22344)" stroke-width="2"/>
<path d="M310.134 62H308.561L306.346 56.8057H302.909V62H301.503V50.0029H306.231C307.515 50.0029 308.464 50.3545 309.079 51.0576C309.7 51.7549 310.011 52.5195 310.011 53.3516C310.011 53.9902 309.838 54.6025 309.492 55.1885C309.146 55.7744 308.575 56.1934 307.778 56.4453L310.134 62ZM302.909 55.584H306.047C306.873 55.584 307.488 55.3672 307.893 54.9336C308.303 54.4941 308.508 53.958 308.508 53.3252C308.508 52.6924 308.291 52.2002 307.857 51.8486C307.43 51.4971 306.888 51.3213 306.231 51.3213H302.909V55.584Z" fill="url(#paint2_linear_105_22344)"/>
<defs>
<linearGradient id="paint0_linear_105_22344" x1="145.173" y1="-4.11993e-08" x2="144.827" y2="82" gradientUnits="userSpaceOnUse">
<stop offset="0.384638" stop-color="white"/>
<stop offset="1" stop-color="#494949"/>
</linearGradient>
<linearGradient id="paint1_linear_105_22344" x1="305.5" y1="44" x2="305.5" y2="69" gradientUnits="userSpaceOnUse">
<stop offset="0.250019" stop-color="white"/>
<stop offset="1" stop-color="#494949"/>
</linearGradient>
<linearGradient id="paint2_linear_105_22344" x1="306" y1="46" x2="306" y2="66" gradientUnits="userSpaceOnUse">
<stop offset="0.360599" stop-color="white"/>
<stop offset="1" stop-color="#494949"/>
</linearGradient>
</defs>
</svg>
