<svg xmlns="http://www.w3.org/2000/svg" version="1.1" xmlns:xlink="http://www.w3.org/1999/xlink" width="1000" height="1000"><g clip-path="url(#SvgjsClipPath1974)"><rect width="1000" height="1000" fill="#ffffff"></rect><g transform="matrix(1.4644351464435146,0,0,1.4644351464435146,150,179.2887029288703)"><svg xmlns="http://www.w3.org/2000/svg" version="1.1" xmlns:xlink="http://www.w3.org/1999/xlink" width="478" height="438"><svg width="478" height="438" viewBox="0 0 478 438" fill="none" xmlns="http://www.w3.org/2000/svg">
<ellipse cx="239.5" cy="88.5" rx="87.5" ry="88.5" fill="black"></ellipse>
<ellipse cx="390.5" cy="348.5" rx="87.5" ry="88.5" fill="black"></ellipse>
<circle cx="87.5" cy="350.5" r="87.5" fill="black"></circle>
<path d="M369.5 261.002C364.3 255.802 375 254.835 381 255.002L391.5 266L376 267.5C376 267.5 374.7 266.202 369.5 261.002Z" fill="black" stroke="black"></path>
<path d="M436.5 276.5C428.5 270.5 436.5 276.5 441 273L444.5 282.5L436.5 276.5Z" fill="black" stroke="black"></path>
<path d="M320.5 130L314.5 127.5L312 130L313.5 135.5L320.5 130Z" fill="black" stroke="black"></path>
<path d="M347 250L318.5 298L322 294.5L331.5 284.5L342 276L354 269L361 266L369 263.5L380 261.5L391.5 261L401.5 261.5L411.5 263L423.5 267.5L434.5 273L441.5 277.5L448 283L462 298L434 251.5L401 193L366.5 133L327.5 66L312.5 40L318 51.5L322.5 63L325 73L326 83V94.5L324.5 105L321.5 115L318 124.5L314.5 131.5L310 138.5L303 147L295 155L290 159.5L284.5 163L279 166.5L272.5 169L265.5 171.5L257 174L249 175.5L240 176.5L319.5 176L326.5 177.5L331.5 180L336.5 182.5L342.5 187L347 190.5L351 196L354.5 203L356.5 210L357.5 220V229.5C357.41 231.549 352.923 240.932 353 240L347 250Z" fill="black"></path>
<path d="M330.5 84L324 68.5L316.5 78.5L313.5 94L314.5 115.5L325 120.5L333 100.5L330.5 84Z" fill="black"></path>
<path d="M295.5 170L301.5 147L287.5 153L279 159L265 170L280 171C292 171.8 295.333 170.667 295.5 170Z" fill="black"></path>
<path d="M423 264.5L411 254L395.5 259C395.333 260.333 398.1 264.7 410.5 271.5C422.9 278.3 424 269.667 423 264.5Z" fill="black"></path>
<path d="M381.5 266.5L372 259L351.5 267.5L359.5 271.5L381.5 266.5Z" fill="black"></path>
<path d="M330.5 84L324 68.5L316.5 78.5L313.5 94L314.5 115.5L325 120.5L333 100.5L330.5 84Z" stroke="black"></path>
<path d="M295.5 170L301.5 147L287.5 153L279 159L265 170L280 171C292 171.8 295.333 170.667 295.5 170Z" stroke="black"></path>
<path d="M423 264.5L411 254L395.5 259C395.333 260.333 398.1 264.7 410.5 271.5C422.9 278.3 424 269.667 423 264.5Z" stroke="black"></path>
<path d="M381.5 266.5L372 259L351.5 267.5L359.5 271.5L381.5 266.5Z" stroke="black"></path>
</svg></svg></g></g><defs><clipPath id="SvgjsClipPath1974"><rect width="1000" height="1000" x="0" y="0" rx="300" ry="300"></rect></clipPath></defs></svg>